<svg xmlns="http://www.w3.org/2000/svg" width="1200" height="630" viewBox="0 0 1200 630" role="img" aria-labelledby="title desc">
  <title id="title">David Russell</title>
  <desc id="desc">Editorial open graph image for davidrussell.co</desc>
  <rect width="1200" height="630" fill="#f7f3ea"/>
  <path d="M0 0h1200v630H0z" fill="url(#paper)"/>
  <g opacity=".42" stroke="#d8cdb8" stroke-width="1">
    <path d="M90 0v630M180 0v630M270 0v630M360 0v630M450 0v630M540 0v630M630 0v630M720 0v630M810 0v630M900 0v630M990 0v630M1080 0v630"/>
    <path d="M0 90h1200M0 180h1200M0 270h1200M0 360h1200M0 450h1200M0 540h1200"/>
  </g>
  <g fill="none" stroke-linecap="round">
    <path d="M705 136c76 12 141 43 196 92s101 92 162 91" stroke="#b8421a" stroke-width="18" opacity=".2"/>
    <path d="M665 215c91-48 178-59 260-33s137 79 166 159" stroke="#24565f" stroke-width="10" opacity=".28"/>
    <path d="M682 398c84-23 157-20 219 9s103 68 122 118" stroke="#171411" stroke-width="6" opacity=".18"/>
  </g>
  <text x="88" y="146" fill="#8a7d6c" font-family="JetBrains Mono, Consolas, monospace" font-size="24" letter-spacing="4">DAVIDRUSSELL.CO</text>
  <text x="86" y="300" fill="#171411" font-family="Fraunces, Georgia, serif" font-size="104">David Russell.</text>
  <text x="92" y="374" fill="#51483d" font-family="Georgia, serif" font-size="34">CEO of Let's Chat, content creator, indie operator.</text>
  <text x="92" y="426" fill="#b8421a" font-family="JetBrains Mono, Consolas, monospace" font-size="22" letter-spacing="3">SOUTH FLORIDA</text>
  <defs>
    <radialGradient id="paper" cx="0" cy="0" r="1" gradientUnits="userSpaceOnUse" gradientTransform="translate(990 80) rotate(135) scale(720 520)">
      <stop stop-color="#ece3d2"/>
      <stop offset="1" stop-color="#f7f3ea" stop-opacity="0"/>
    </radialGradient>
  </defs>
</svg>
